General                          : ChattChitto RG - Movies [R2L]
==========
Complete name                    : Age Of The Dragons 2011 720p BRRip H264 [ChattChitto RG]
Format                           : MPEG-4
Format profile                   : Base Media
Codec ID                         : isom
File size                        : 1.82 GiB
Duration                         : 1h 34mn
Overall bit rate                 : 2 758 Kbps
Encoded date                     : UTC 2011-04-14 17:18:04

Video
==========
ID                               : 1
Format                           : AVC
Format/Info                      : Advanced Video Codec
Format profile                   : High@L4.1
Format settings, CABAC           : Yes
Format settings, ReFrames        : 4 frames
Codec ID                         : avc1
Codec ID/Info                    : Advanced Video Coding
Duration                         : 1h 34mn
Bit rate mode                    : Variable
Bit rate                         : 2 400 Kbps
Maximum bit rate                 : 25.3 Mbps
Width                            : 1 280 pixels
Height                           : 544 pixels
Display aspect ratio             : 2.35:1
Frame rate mode                  : Constant
Frame rate                       : 23.976 fps
Color space                      : YUV
Chroma subsampling               : 4:2:0
Bit depth                        : 8 bits
Scan type                        : Progressive
Bits/(Pixel*Frame)               : 0.144
Stream size                      : 1.59 GiB (87%)
Writing library                  : x264 core 114 r1913 5fd3dce
Encoded date                     : UTC 2011-04-11 08:36:31

Audio
==========
ID                               : 2
Format                           : AAC
Format/Info                      : Advanced Audio Codec
Format profile                   : LC
Codec ID                         : 40
Duration                         : 1h 34mn
Bit rate mode                    : Variable
Bit rate                         : 352.8 Kbps
Maximum bit rate                 : 480 Kbps
Channel(s)                       : 6 channels
Channel positions                : Front: L C R, Side: L R, LFE
Sampling rate                    : 48.0 KHz
Compression mode                 : Lossy
Stream size                      : 240 MiB (13%)
Encoded date                     : UTC 2011-04-14 17:18:26

Subtitles                        : None


----------------------------------------------------
IMDB Link: http://www.imdb.com/title/tt1594917/
----------------------------------------------------



Screen Shots:
==============    
http://chattchitto.net/chattchittorg/movies/brrip/2011/age_of_the_dragons/1.png 
http://chattchitto.net/chattchittorg/movies/brrip/2011/age_of_the_dragons/2.png 
http://chattchitto.net/chattchittorg/movies/brrip/2011/age_of_the_dragons/3.png 
http://chattchitto.net/chattchittorg/movies/brrip/2011/age_of_the_dragons/4.png 
http://chattchitto.net/chattchittorg/movies/brrip/2011/age_of_the_dragons/5.png 
http://chattchitto.net/chattchittorg/movies/brrip/2011/age_of_the_dragons/6.png



ScreenShots Comparison:
=========================  
http://screenshotcomparison.com/comparison/43878



Plot:
======
Herman Melville's classic novel Moby Dick, is recreated in a world where Captain Ahab and his crew search for a Great White Dragon.



Release Info:
==============
original name .... : Age Of The Dragons 2011 720p BRRip H264 [ChattChitto RG]
ripper.............: LLT
encoder............: Recalled2Life (R2L)
video codec........: H264/.MP4
video bitrate......: 2400
audio codec........: AAC-LC
aspect ratio.......: 2.35:1
resolution.........: 1280 x 544
genre..............: Action | Fantasy | Sci-Fi
runtime............: 1h 34mn
language...........: English
rating.............: Not Rated
subtitles..........: None
sample.............: Yes
2ch Audio..........: 2ch Audio for XBox Viewers
Compatibility .....: XBox | PS3 | WD Live



Source:
========
Age.of.the.Dragons.2011.BluRay.1080p.x264.DTS-LTT  THANKS!



Notes:
=======
ChattChitto RG Encourages Burning this Film with ConvertXtoDVD and Playing with VLC media player.
XBox 360 | PS3 | WD Live - Compatible 
Enhanced for your viewing pleasure ;)